<?xml version="1.0" encoding="UTF-8" standalone="no"?>
<!DOCTYPE svg PUBLIC "-//W3C//DTD SVG 1.1//EN" "http://www.w3.org/Graphics/SVG/1.1/DTD/svg11.dtd">
<svg xmlns="http://www.w3.org/2000/svg" version="1.1" viewBox="0.00 0.00 1024.00 1024.00">
<g stroke-width="2.00" fill="none" stroke-linecap="butt">
<path stroke="#fad5d8" vector-effect="non-scaling-stroke" d="
  M 485.92 198.10
  Q 482.77 199.48 482.11 201.12
  C 475.54 217.43 477.03 238.18 491.58 249.80
  Q 496.19 253.48 501.88 254.47
  C 503.69 254.78 505.54 254.46 507.37 254.45
  A 0.45 0.44 -86.1 0 1 507.81 254.96
  L 507.32 258.45
  Q 507.11 259.96 508.56 259.46
  Q 519.99 255.43 531.47 252.53
  Q 533.25 252.08 534.15 251.47
  Q 536.63 249.79 534.19 248.04"
/>
<path stroke="#87858c" vector-effect="non-scaling-stroke" d="
  M 534.19 248.04
  Q 540.84 245.98 546.08 241.89
  Q 546.47 241.59 546.67 242.04
  Q 551.99 254.05 557.26 266.08
  C 559.08 270.24 561.28 274.35 563.37 278.38
  C 566.20 283.86 564.32 289.44 562.17 294.68
  Q 561.76 295.68 561.58 294.62
  Q 560.13 285.75 558.57 278.00
  Q 558.01 275.17 556.89 272.92
  A 1.50 1.49 70.6 0 0 555.23 272.12
  L 550.27 273.19
  Q 549.74 273.30 549.84 273.84
  L 550.45 276.85"
/>
<path stroke="#f8f7fe" vector-effect="non-scaling-stroke" d="
  M 550.45 276.85
  Q 549.11 277.17 547.97 274.68
  Q 547.74 274.20 547.22 274.13
  C 545.96 273.97 544.72 274.75 543.42 274.97
  C 531.25 277.02 519.56 281.57 510.60 289.92
  Q 505.93 294.27 498.26 305.98
  Q 477.29 337.97 456.75 369.48
  Q 454.98 372.19 453.29 375.08
  Q 450.79 379.32 447.29 381.69
  Q 399.50 413.89 348.43 448.87
  C 343.84 452.01 338.92 454.58 334.58 458.01
  A 1.43 1.43 0.0 0 0 334.19 459.77
  C 336.61 464.64 339.37 469.32 341.65 474.30
  Q 343.07 477.42 344.86 480.50
  Q 349.93 489.24 353.76 498.18
  A 0.80 0.80 0.0 0 0 354.88 498.58
  C 393.31 477.90 430.94 458.28 468.69 437.62
  Q 481.26 430.74 493.64 422.76
  Q 500.38 418.43 502.38 416.22
  Q 505.52 412.74 508.35 408.38
  Q 524.77 383.14 538.63 360.71
  Q 543.42 352.96 548.95 342.99
  Q 552.49 336.63 554.44 330.93
  Q 554.57 330.55 554.87 330.29
  Q 555.21 329.99 555.42 330.20
  Q 555.80 330.59 555.62 331.10
  Q 554.56 334.22 552.51 337.99
  Q 543.97 353.64 536.98 364.74
  Q 531.42 373.57 526.00 382.23
  Q 517.14 396.38 507.48 411.30
  C 504.21 416.36 500.26 419.58 495.31 422.84
  Q 489.35 426.76 482.87 430.47
  C 481.95 430.99 480.82 431.92 480.59 433.03
  Q 477.09 449.68 472.42 465.63
  Q 471.88 467.49 471.57 469.56
  Q 471.25 471.79 470.85 473.42"
/>
<path stroke="#87858c" vector-effect="non-scaling-stroke" d="
  M 470.85 473.42
  Q 468.77 486.31 467.08 498.84
  Q 465.23 512.50 464.31 518.63
  Q 453.06 593.83 441.58 669.00
  Q 440.98 672.90 440.43 674.50
  Q 415.92 746.13 391.58 817.83
  Q 391.09 819.27 393.89 819.12"
/>
<path stroke="#fad5d8" vector-effect="non-scaling-stroke" d="
  M 393.89 819.12
  Q 393.74 819.88 392.74 819.69
  A 1.59 1.58 -74.0 0 0 390.99 820.67
  Q 387.99 828.21 380.79 833.02
  Q 371.22 839.42 361.06 846.05"
/>
<path stroke="#87858c" vector-effect="non-scaling-stroke" d="
  M 361.06 846.05
  Q 354.51 841.69 345.76 841.19
  Q 342.80 841.02 340.60 842.40
  A 1.57 1.55 63.5 0 0 339.98 844.28
  C 341.98 849.40 348.75 854.84 353.16 858.17
  C 360.07 863.39 366.77 863.23 374.63 861.18
  Q 382.87 859.04 389.79 856.20
  Q 390.34 855.98 390.27 856.56
  Q 389.31 865.44 387.76 874.49
  Q 387.46 876.22 388.53 877.72"
/>
<path stroke="#f8f7fe" vector-effect="non-scaling-stroke" d="
  M 388.53 877.72
  Q 387.56 878.28 386.76 876.83
  A 1.29 1.27 84.8 0 0 386.05 876.23
  Q 384.21 875.59 382.25 875.61
  Q 368.89 875.69 356.00 875.72
  Q 210.21 876.03 63.46 875.73
  C 57.85 875.72 52.29 875.56 48.63 880.52
  C 45.94 884.17 45.86 891.00 49.17 894.68
  C 52.96 898.89 58.10 898.82 63.25 898.82
  Q 297.38 898.73 532.25 898.94
  Q 542.63 898.95 552.25 898.93
  Q 748.67 898.58 962.50 898.86
  C 968.49 898.87 974.21 898.02 976.77 892.10
  C 979.44 885.95 976.86 879.59 970.91 876.75
  Q 968.77 875.72 962.49 875.72
  Q 847.24 875.74 732.01 876.03
  Q 727.48 876.04 722.50 876.08
  A 3.43 2.63 -64.5 0 0 720.24 877.23
  Q 719.78 877.74 718.96 877.70
  Q 717.50 877.62 716.17 877.39
  A 1.37 1.32 -52.5 0 0 715.36 877.51
  C 714.37 877.99 713.03 878.11 712.05 877.49
  Q 710.64 876.60 709.05 876.42
  Q 700.51 875.49 688.65 876.00
  Q 688.19 876.02 687.92 875.65
  Q 687.56 875.15 687.42 874.50"
/>
<path stroke="#87858c" vector-effect="non-scaling-stroke" d="
  M 687.42 874.50
  Q 695.79 866.37 702.50 856.75
  Q 702.87 856.21 703.16 856.80
  Q 706.97 864.61 710.89 874.27
  C 711.40 875.55 712.14 876.86 713.68 877.02
  Q 717.19 877.39 719.88 876.27
  Q 720.36 876.07 720.39 875.56
  C 720.67 869.38 719.00 862.34 718.09 856.20
  C 717.88 854.75 717.98 853.00 718.69 851.70
  C 722.21 845.31 721.06 835.27 719.91 828.16
  Q 719.65 826.54 718.81 825.37
  A 2.06 2.05 -40.0 0 0 715.71 825.10
  L 707.12 833.47"
/>
<path stroke="#fad5d8" vector-effect="non-scaling-stroke" d="
  M 707.12 833.47
  L 707.74 810.98"
/>
<path stroke="#87858c" vector-effect="non-scaling-stroke" d="
  M 707.74 810.98
  L 751.02 782.42
  A 0.67 0.67 0.0 0 0 751.14 781.40
  C 712.31 740.95 671.49 698.99 628.08 654.73
  Q 624.56 651.15 623.10 649.12
  Q 620.95 646.14 619.76 642.40
  Q 609.82 611.03 596.86 571.31
  Q 596.70 570.80 596.16 570.80
  L 579.90 570.72"
/>
<path stroke="#f8f7fe" vector-effect="non-scaling-stroke" d="
  M 579.90 570.72
  Q 578.59 568.80 583.75 568.38
  Q 588.25 568.01 594.88 568.89
  Q 596.29 569.08 597.90 569.56
  Q 599.41 570.02 601.15 569.83
  Q 604.76 569.45 608.32 568.87
  A 0.64 0.64 0.0 0 0 608.85 568.14
  Q 606.94 556.67 604.15 545.49
  Q 604.05 545.06 604.27 543.98"
/>
<path stroke="#87858c" vector-effect="non-scaling-stroke" d="
  M 604.27 543.98
  L 654.45 520.49
  A 0.61 0.61 0.0 0 0 654.74 519.68
  L 609.96 422.26"
/>
<path stroke="#f8f7fe" vector-effect="non-scaling-stroke" d="
  M 609.96 422.26
  Q 610.74 422.57 611.42 422.35
  Q 612.00 422.17 612.29 421.62
  Q 615.76 415.08 619.43 408.64
  C 622.79 402.76 626.35 395.46 624.50 388.59
  Q 623.64 385.37 620.03 380.74
  Q 614.88 374.12 610.38 366.74
  Q 596.54 344.08 580.37 314.25
  C 579.34 312.33 577.90 308.84 575.46 308.65
  Q 574.93 308.61 575.11 308.11
  L 575.28 307.66"
/>
<path stroke="#87858c" vector-effect="non-scaling-stroke" d="
  M 575.28 307.66
  C 585.27 308.27 595.72 304.61 601.62 296.49
  C 611.86 282.37 605.55 265.47 594.31 254.22
  C 583.89 243.80 569.87 236.01 554.82 230.17
  Q 554.21 229.94 554.50 229.35
  Q 560.61 216.81 557.75 204.29
  C 553.56 185.97 537.23 173.88 518.25 176.23
  C 517.42 176.34 516.31 176.20 515.62 175.67
  C 506.71 168.93 494.43 165.42 483.65 169.11
  C 467.82 174.51 470.24 194.78 485.92 198.10"
/>
<path stroke="#807d8a" vector-effect="non-scaling-stroke" d="
  M 575.28 307.66
  Q 569.02 307.13 563.53 304.43
  A 0.12 0.11 8.4 0 0 563.36 304.55
  Q 570.92 347.00 578.93 393.17
  Q 580.74 403.59 582.19 413.75
  A 0.57 0.57 0.0 0 0 582.98 414.19
  L 601.54 406.26
  Q 602.68 405.77 603.18 406.91
  L 609.96 422.26"
/>
<path stroke="#807d8a" vector-effect="non-scaling-stroke" d="
  M 604.27 543.98
  Q 604.00 543.90 603.93 543.50
  Q 591.53 480.01 579.21 416.50
  Q 568.57 361.67 550.45 276.85"
/>
<path stroke="#825b64" vector-effect="non-scaling-stroke" d="
  M 534.19 248.04
  L 527.46 249.65
  A 0.88 0.88 0.0 0 1 526.38 248.82
  Q 526.13 240.03 525.08 231.13
  Q 525.04 230.78 525.39 230.74
  Q 531.05 230.09 533.24 224.85
  C 535.47 219.49 532.10 212.67 526.20 211.87
  Q 518.42 210.81 515.67 217.09
  A 1.14 1.14 0.0 0 1 514.03 217.60
  Q 503.00 210.74 495.96 198.25
  A 0.81 0.81 0.0 0 0 495.24 197.84
  L 485.92 198.10"
/>
<path stroke="#807d8a" vector-effect="non-scaling-stroke" d="
  M 579.90 570.72
  L 475.53 570.10
  Q 475.03 570.10 475.01 569.60
  L 470.85 473.42"
/>
<path stroke="#825b64" vector-effect="non-scaling-stroke" d="
  M 707.74 810.98
  L 685.65 825.62"
/>
<path stroke="#87858c" vector-effect="non-scaling-stroke" d="
  M 685.65 825.62
  L 670.48 835.70
  A 1.03 1.02 -36.0 0 1 669.12 835.49
  Q 610.39 763.06 552.28 690.69
  C 549.45 687.16 545.65 682.86 544.13 679.35
  Q 541.49 673.27 539.74 667.77
  Q 539.13 665.87 538.40 667.73
  Q 532.99 681.62 527.14 697.90
  Q 502.68 765.91 477.70 835.36
  Q 477.54 835.82 477.06 835.72
  L 415.93 823.58"
/>
<path stroke="#825b64" vector-effect="non-scaling-stroke" d="
  M 415.93 823.58
  L 393.89 819.12"
/>
<path stroke="#825b64" vector-effect="non-scaling-stroke" d="
  M 707.12 833.47
  Q 698.42 841.34 695.97 845.21
  Q 691.62 852.08 687.68 858.76
  Q 684.98 863.33 683.05 864.29
  Q 682.21 864.71 681.23 864.80
  Q 675.97 865.25 670.44 865.50"
/>
<path stroke="#fad5d8" vector-effect="non-scaling-stroke" d="
  M 685.65 825.62
  Q 686.31 826.03 685.79 827.60
  Q 685.45 828.62 685.46 829.46
  Q 685.54 836.76 682.60 842.76
  Q 679.88 848.31 670.44 865.50"
/>
<path stroke="#87858c" vector-effect="non-scaling-stroke" d="
  M 670.44 865.50
  Q 661.44 865.70 655.16 870.91
  Q 652.86 872.82 653.46 875.71"
/>
<path stroke="#f8f7fe" vector-effect="non-scaling-stroke" d="
  M 653.46 875.71
  Q 653.52 876.31 652.51 876.07
  Q 651.15 875.73 649.75 875.74
  Q 638.04 875.83 628.00 875.84
  Q 517.20 875.86 407.72 875.89
  C 405.12 875.89 402.44 876.35 399.82 876.35
  Q 399.35 876.35 398.98 876.65
  Q 398.36 877.17 397.94 877.85
  Q 397.77 878.13 397.46 878.18
  Q 396.71 878.31 396.63 879.13
  Q 396.58 879.58 396.30 879.22
  L 396.09 878.94"
/>
<path stroke="#87858c" vector-effect="non-scaling-stroke" d="
  M 396.09 878.94
  Q 398.90 873.04 401.36 866.85
  Q 403.33 861.88 405.33 860.40
  C 411.17 856.07 414.60 849.50 418.15 842.27
  Q 419.01 840.52 418.93 839.04
  A 1.73 1.73 0.0 0 0 416.89 837.43
  L 401.04 840.29"
/>
<path stroke="#fad5d8" vector-effect="non-scaling-stroke" d="
  M 401.04 840.29
  Q 405.01 838.24 406.87 836.08
  Q 411.26 831.00 415.93 823.58"
/>
<path stroke="#825b64" vector-effect="non-scaling-stroke" d="
  M 401.04 840.29
  Q 392.77 842.06 387.88 844.35
  Q 379.03 848.49 376.50 849.75
  C 370.13 852.90 365.79 850.13 361.06 846.05"
/>
<path stroke="#807d8a" vector-effect="non-scaling-stroke" d="
  M 687.42 874.50
  Q 680.69 880.41 670.01 879.47
  Q 659.75 878.57 653.46 875.71"
/>
<path stroke="#807d8a" vector-effect="non-scaling-stroke" d="
  M 396.09 878.94
  Q 395.07 880.95 393.38 880.37
  Q 390.54 879.40 388.53 877.72"
/>
<path stroke="#b4a3ff" vector-effect="non-scaling-stroke" d="
  M 680.70 209.32
  Q 680.46 211.23 679.58 209.51
  C 672.47 195.51 656.33 188.84 641.25 190.01
  C 630.69 190.83 620.80 197.25 618.91 207.81
  C 616.08 223.64 627.75 238.40 638.70 248.33
  Q 657.09 265.03 679.39 279.62
  Q 683.86 282.55 688.68 284.91
  A 2.12 2.12 0.0 0 0 691.15 284.46
  Q 698.40 276.80 704.66 268.20
  Q 719.34 248.04 730.14 227.61
  Q 734.53 219.29 737.19 211.53
  C 742.12 197.10 739.37 182.95 723.90 177.53
  Q 719.49 175.98 714.10 176.39
  C 701.53 177.35 691.83 183.34 685.71 194.21
  Q 681.69 201.34 680.70 209.32"
/>
<path stroke="#f8f7fe" vector-effect="non-scaling-stroke" d="
  M 510.26 286.73
  A 0.89 0.89 0.0 0 0 511.71 287.18
  Q 518.91 280.92 527.93 277.74
  Q 536.15 274.84 546.26 273.03
  A 1.10 1.10 0.0 0 0 546.84 271.17
  C 544.37 268.70 543.33 263.16 542.59 259.79
  C 542.16 257.79 541.30 255.94 540.45 254.10
  A 2.02 2.02 0.0 0 0 537.88 253.07
  C 535.89 253.84 534.01 254.80 531.87 255.26
  Q 517.96 258.29 505.64 263.64
  A 1.52 1.52 0.0 0 0 504.77 265.42
  L 510.26 286.73"
/>
<path stroke="#f8f7fe" vector-effect="non-scaling-stroke" d="
  M 311.97 475.10
  Q 311.32 476.85 309.77 477.41
  Q 297.00 482.01 292.55 494.74
  C 291.63 497.39 291.24 500.51 291.25 503.35
  Q 291.28 523.38 291.23 542.77
  Q 291.23 544.26 290.78 545.73
  Q 290.65 546.16 290.20 546.25
  L 289.78 546.32"
/>
<path stroke="#cac5fc" vector-effect="non-scaling-stroke" d="
  M 289.78 546.32
  L 259.01 546.36"
/>
<path stroke="#e4e3fb" vector-effect="non-scaling-stroke" d="
  M 259.01 546.36
  L 246.40 546.17
  Q 245.72 546.16 245.67 546.84
  Q 245.16 553.62 244.65 559.73
  Q 240.89 605.12 236.99 650.50
  Q 235.03 673.29 233.04 696.00
  Q 232.62 700.80 233.13 703.65"
/>
<path stroke="#b4a3ff" vector-effect="non-scaling-stroke" d="
  M 233.13 703.65
  Q 232.32 704.42 232.39 704.85
  Q 232.45 705.23 233.29 705.23
  Q 321.29 704.55 409.87 705.26
  A 0.54 0.54 0.0 0 0 410.40 704.63
  L 410.01 702.45"
/>
<path stroke="#cac5fc" vector-effect="non-scaling-stroke" d="
  M 410.01 702.45
  L 395.09 545.53
  Q 395.03 544.89 394.38 544.89
  L 382.75 544.80"
/>
<path stroke="#b4a3ff" vector-effect="non-scaling-stroke" d="
  M 382.75 544.80
  L 381.05 544.80"
/>
<path stroke="#cac5fc" vector-effect="non-scaling-stroke" d="
  M 381.05 544.80
  L 350.49 546.14"
/>
<path stroke="#f8f7fe" vector-effect="non-scaling-stroke" d="
  M 350.49 546.14
  Q 349.51 546.24 348.81 545.93
  Q 348.34 545.72 348.32 545.20
  Q 348.26 543.98 348.25 542.75
  Q 348.15 522.01 348.10 501.24
  Q 348.09 494.95 342.94 487.83"
/>
<path stroke="#fad5d8" vector-effect="non-scaling-stroke" d="
  M 342.94 487.83
  Q 343.56 486.83 344.03 486.53
  A 1.40 1.38 59.6 0 0 344.50 484.68
  Q 338.24 473.36 333.38 462.67
  A 1.32 1.31 70.5 0 0 331.86 461.94
  Q 319.83 465.02 311.97 475.10"
/>
<path stroke="#f3cdd6" vector-effect="non-scaling-stroke" d="
  M 342.94 487.83
  Q 340.54 488.16 338.65 491.28"
/>
<path stroke="#fad5d8" vector-effect="non-scaling-stroke" d="
  M 338.65 491.28
  Q 337.95 490.65 336.66 491.38
  C 331.26 494.42 323.52 496.04 318.01 493.42
  Q 312.31 490.70 311.29 482.68"
/>
<path stroke="#f3cdd6" vector-effect="non-scaling-stroke" d="
  M 311.29 482.68
  Q 312.16 479.84 312.05 478.75
  Q 311.85 476.97 311.97 475.10"
/>
<path stroke="#f8f7fe" vector-effect="non-scaling-stroke" d="
  M 311.29 482.68
  Q 307.11 485.01 304.25 487.52
  Q 297.09 493.82 296.94 503.50
  Q 296.63 524.55 296.75 545.61
  Q 296.75 546.09 296.95 546.34
  Q 297.29 546.74 297.81 546.51"
/>
<path stroke="#c3bdfa" vector-effect="non-scaling-stroke" d="
  M 297.81 546.51
  Q 297.04 546.94 296.95 547.40"
/>
<path stroke="#f8f7fe" vector-effect="non-scaling-stroke" d="
  M 296.95 547.40
  Q 293.93 546.72 290.91 547.27"
/>
<path stroke="#c3bdfa" vector-effect="non-scaling-stroke" d="
  M 290.91 547.27
  Q 290.54 546.59 289.78 546.32"
/>
<path stroke="#c3bdfa" vector-effect="non-scaling-stroke" d="
  M 350.49 546.14
  Q 349.92 546.10 349.49 546.25
  Q 349.00 546.41 348.90 546.92
  Q 348.78 547.55 348.98 547.65"
/>
<path stroke="#f8f7fe" vector-effect="non-scaling-stroke" d="
  M 348.98 547.65
  Q 346.68 546.30 342.88 547.55"
/>
<path stroke="#c3bdfa" vector-effect="non-scaling-stroke" d="
  M 342.88 547.55
  Q 343.33 547.36 343.05 546.87
  Q 342.90 546.62 342.58 546.51
  Q 342.00 546.30 341.29 546.35"
/>
<path stroke="#f8f7fe" vector-effect="non-scaling-stroke" d="
  M 338.65 491.28
  Q 343.26 496.89 343.26 505.49
  Q 343.27 525.18 343.05 544.86
  Q 343.04 545.66 342.63 545.99
  Q 342.11 546.41 341.29 546.35"
/>
<path stroke="#cac5fc" vector-effect="non-scaling-stroke" d="
  M 341.29 546.35
  L 297.81 546.51"
/>
<path stroke="#cac5fc" vector-effect="non-scaling-stroke" d="
  M 342.88 547.55
  Q 343.03 557.74 342.70 567.75
  Q 342.44 575.68 337.21 581.47
  C 328.57 591.02 315.26 592.79 305.29 584.05
  Q 296.46 576.30 296.70 564.75
  Q 296.88 556.21 296.95 547.40"
/>
<path stroke="#7f68fc" vector-effect="non-scaling-stroke" d="
  M 381.05 544.80
  L 379.36 545.09
  Q 379.01 545.15 379.16 545.47
  Q 379.33 545.84 379.36 546.24
  Q 380.72 565.36 382.21 584.04
  Q 382.32 585.47 382.51 586.93
  Q 382.88 589.78 383.02 592.83
  Q 383.58 604.61 385.61 623.29
  Q 386.69 633.19 387.50 643.19
  Q 389.01 661.68 390.39 680.43
  C 390.59 683.23 391.38 686.36 393.26 688.52
  Q 396.27 691.98 399.91 696.14
  Q 401.94 698.47 402.99 700.87
  A 1.01 1.01 0.0 0 1 402.11 702.28
  Q 395.15 702.56 388.67 702.45
  Q 367.41 702.08 348.12 702.58
  C 325.96 703.15 303.00 702.57 282.51 702.61
  Q 274.10 702.63 262.51 702.30
  Q 249.42 701.94 235.95 702.15"
/>
<path stroke="#aea9f8" vector-effect="non-scaling-stroke" d="
  M 235.95 702.15
  Q 241.74 695.29 247.26 689.38
  C 248.77 687.75 250.28 685.69 250.35 683.49
  Q 250.67 673.85 251.24 666.00
  Q 254.66 618.29 258.59 560.25
  Q 259.13 552.22 259.01 546.36"
/>
<path stroke="#cac5fc" vector-effect="non-scaling-stroke" d="
  M 290.91 547.27
  Q 291.00 561.58 290.86 565.51
  C 290.19 583.54 304.97 596.86 322.77 595.53
  C 338.11 594.39 349.35 580.85 349.04 565.75
  Q 348.86 557.09 348.98 547.65"
/>
<path stroke="#7f68fc" vector-effect="non-scaling-stroke" d="
  M 382.75 544.80
  Q 383.38 554.95 384.36 565.05
  Q 385.74 579.27 386.18 584.98
  Q 387.61 603.63 389.03 622.28
  C 390.47 641.25 392.58 661.11 393.80 679.20
  Q 394.04 682.78 395.31 685.10
  C 397.58 689.24 400.57 692.46 403.61 695.97
  Q 403.64 696.01 405.99 699.30
  Q 407.58 701.51 410.01 702.45"
/>
<path stroke="#9987fb" vector-effect="non-scaling-stroke" d="
  M 233.13 703.65
  L 235.95 702.15"
/>
</g>
<path fill="#ffffff" d="
  M 0.00 0.00
  L 1024.00 0.00
  L 1024.00 1024.00
  L 0.00 1024.00
  L 0.00 0.00
  Z
  M 485.92 198.10
  Q 482.77 199.48 482.11 201.12
  C 475.54 217.43 477.03 238.18 491.58 249.80
  Q 496.19 253.48 501.88 254.47
  C 503.69 254.78 505.54 254.46 507.37 254.45
  A 0.45 0.44 -86.1 0 1 507.81 254.96
  L 507.32 258.45
  Q 507.11 259.96 508.56 259.46
  Q 519.99 255.43 531.47 252.53
  Q 533.25 252.08 534.15 251.47
  Q 536.63 249.79 534.19 248.04
  Q 540.84 245.98 546.08 241.89
  Q 546.47 241.59 546.67 242.04
  Q 551.99 254.05 557.26 266.08
  C 559.08 270.24 561.28 274.35 563.37 278.38
  C 566.20 283.86 564.32 289.44 562.17 294.68
  Q 561.76 295.68 561.58 294.62
  Q 560.13 285.75 558.57 278.00
  Q 558.01 275.17 556.89 272.92
  A 1.50 1.49 70.6 0 0 555.23 272.12
  L 550.27 273.19
  Q 549.74 273.30 549.84 273.84
  L 550.45 276.85
  Q 549.11 277.17 547.97 274.68
  Q 547.74 274.20 547.22 274.13
  C 545.96 273.97 544.72 274.75 543.42 274.97
  C 531.25 277.02 519.56 281.57 510.60 289.92
  Q 505.93 294.27 498.26 305.98
  Q 477.29 337.97 456.75 369.48
  Q 454.98 372.19 453.29 375.08
  Q 450.79 379.32 447.29 381.69
  Q 399.50 413.89 348.43 448.87
  C 343.84 452.01 338.92 454.58 334.58 458.01
  A 1.43 1.43 0.0 0 0 334.19 459.77
  C 336.61 464.64 339.37 469.32 341.65 474.30
  Q 343.07 477.42 344.86 480.50
  Q 349.93 489.24 353.76 498.18
  A 0.80 0.80 0.0 0 0 354.88 498.58
  C 393.31 477.90 430.94 458.28 468.69 437.62
  Q 481.26 430.74 493.64 422.76
  Q 500.38 418.43 502.38 416.22
  Q 505.52 412.74 508.35 408.38
  Q 524.77 383.14 538.63 360.71
  Q 543.42 352.96 548.95 342.99
  Q 552.49 336.63 554.44 330.93
  Q 554.57 330.55 554.87 330.29
  Q 555.21 329.99 555.42 330.20
  Q 555.80 330.59 555.62 331.10
  Q 554.56 334.22 552.51 337.99
  Q 543.97 353.64 536.98 364.74
  Q 531.42 373.57 526.00 382.23
  Q 517.14 396.38 507.48 411.30
  C 504.21 416.36 500.26 419.58 495.31 422.84
  Q 489.35 426.76 482.87 430.47
  C 481.95 430.99 480.82 431.92 480.59 433.03
  Q 477.09 449.68 472.42 465.63
  Q 471.88 467.49 471.57 469.56
  Q 471.25 471.79 470.85 473.42
  Q 468.77 486.31 467.08 498.84
  Q 465.23 512.50 464.31 518.63
  Q 453.06 593.83 441.58 669.00
  Q 440.98 672.90 440.43 674.50
  Q 415.92 746.13 391.58 817.83
  Q 391.09 819.27 393.89 819.12
  Q 393.74 819.88 392.74 819.69
  A 1.59 1.58 -74.0 0 0 390.99 820.67
  Q 387.99 828.21 380.79 833.02
  Q 371.22 839.42 361.06 846.05
  Q 354.51 841.69 345.76 841.19
  Q 342.80 841.02 340.60 842.40
  A 1.57 1.55 63.5 0 0 339.98 844.28
  C 341.98 849.40 348.75 854.84 353.16 858.17
  C 360.07 863.39 366.77 863.23 374.63 861.18
  Q 382.87 859.04 389.79 856.20
  Q 390.34 855.98 390.27 856.56
  Q 389.31 865.44 387.76 874.49
  Q 387.46 876.22 388.53 877.72
  Q 387.56 878.28 386.76 876.83
  A 1.29 1.27 84.8 0 0 386.05 876.23
  Q 384.21 875.59 382.25 875.61
  Q 368.89 875.69 356.00 875.72
  Q 210.21 876.03 63.46 875.73
  C 57.85 875.72 52.29 875.56 48.63 880.52
  C 45.94 884.17 45.86 891.00 49.17 894.68
  C 52.96 898.89 58.10 898.82 63.25 898.82
  Q 297.38 898.73 532.25 898.94
  Q 542.63 898.95 552.25 898.93
  Q 748.67 898.58 962.50 898.86
  C 968.49 898.87 974.21 898.02 976.77 892.10
  C 979.44 885.95 976.86 879.59 970.91 876.75
  Q 968.77 875.72 962.49 875.72
  Q 847.24 875.74 732.01 876.03
  Q 727.48 876.04 722.50 876.08
  A 3.43 2.63 -64.5 0 0 720.24 877.23
  Q 719.78 877.74 718.96 877.70
  Q 717.50 877.62 716.17 877.39
  A 1.37 1.32 -52.5 0 0 715.36 877.51
  C 714.37 877.99 713.03 878.11 712.05 877.49
  Q 710.64 876.60 709.05 876.42
  Q 700.51 875.49 688.65 876.00
  Q 688.19 876.02 687.92 875.65
  Q 687.56 875.15 687.42 874.50
  Q 695.79 866.37 702.50 856.75
  Q 702.87 856.21 703.16 856.80
  Q 706.97 864.61 710.89 874.27
  C 711.40 875.55 712.14 876.86 713.68 877.02
  Q 717.19 877.39 719.88 876.27
  Q 720.36 876.07 720.39 875.56
  C 720.67 869.38 719.00 862.34 718.09 856.20
  C 717.88 854.75 717.98 853.00 718.69 851.70
  C 722.21 845.31 721.06 835.27 719.91 828.16
  Q 719.65 826.54 718.81 825.37
  A 2.06 2.05 -40.0 0 0 715.71 825.10
  L 707.12 833.47
  L 707.74 810.98
  L 751.02 782.42
  A 0.67 0.67 0.0 0 0 751.14 781.40
  C 712.31 740.95 671.49 698.99 628.08 654.73
  Q 624.56 651.15 623.10 649.12
  Q 620.95 646.14 619.76 642.40
  Q 609.82 611.03 596.86 571.31
  Q 596.70 570.80 596.16 570.80
  L 579.90 570.72
  Q 578.59 568.80 583.75 568.38
  Q 588.25 568.01 594.88 568.89
  Q 596.29 569.08 597.90 569.56
  Q 599.41 570.02 601.15 569.83
  Q 604.76 569.45 608.32 568.87
  A 0.64 0.64 0.0 0 0 608.85 568.14
  Q 606.94 556.67 604.15 545.49
  Q 604.05 545.06 604.27 543.98
  L 654.45 520.49
  A 0.61 0.61 0.0 0 0 654.74 519.68
  L 609.96 422.26
  Q 610.74 422.57 611.42 422.35
  Q 612.00 422.17 612.29 421.62
  Q 615.76 415.08 619.43 408.64
  C 622.79 402.76 626.35 395.46 624.50 388.59
  Q 623.64 385.37 620.03 380.74
  Q 614.88 374.12 610.38 366.74
  Q 596.54 344.08 580.37 314.25
  C 579.34 312.33 577.90 308.84 575.46 308.65
  Q 574.93 308.61 575.11 308.11
  L 575.28 307.66
  C 585.27 308.27 595.72 304.61 601.62 296.49
  C 611.86 282.37 605.55 265.47 594.31 254.22
  C 583.89 243.80 569.87 236.01 554.82 230.17
  Q 554.21 229.94 554.50 229.35
  Q 560.61 216.81 557.75 204.29
  C 553.56 185.97 537.23 173.88 518.25 176.23
  C 517.42 176.34 516.31 176.20 515.62 175.67
  C 506.71 168.93 494.43 165.42 483.65 169.11
  C 467.82 174.51 470.24 194.78 485.92 198.10
  Z
  M 680.70 209.32
  Q 680.46 211.23 679.58 209.51
  C 672.47 195.51 656.33 188.84 641.25 190.01
  C 630.69 190.83 620.80 197.25 618.91 207.81
  C 616.08 223.64 627.75 238.40 638.70 248.33
  Q 657.09 265.03 679.39 279.62
  Q 683.86 282.55 688.68 284.91
  A 2.12 2.12 0.0 0 0 691.15 284.46
  Q 698.40 276.80 704.66 268.20
  Q 719.34 248.04 730.14 227.61
  Q 734.53 219.29 737.19 211.53
  C 742.12 197.10 739.37 182.95 723.90 177.53
  Q 719.49 175.98 714.10 176.39
  C 701.53 177.35 691.83 183.34 685.71 194.21
  Q 681.69 201.34 680.70 209.32
  Z
  M 510.26 286.73
  A 0.89 0.89 0.0 0 0 511.71 287.18
  Q 518.91 280.92 527.93 277.74
  Q 536.15 274.84 546.26 273.03
  A 1.10 1.10 0.0 0 0 546.84 271.17
  C 544.37 268.70 543.33 263.16 542.59 259.79
  C 542.16 257.79 541.30 255.94 540.45 254.10
  A 2.02 2.02 0.0 0 0 537.88 253.07
  C 535.89 253.84 534.01 254.80 531.87 255.26
  Q 517.96 258.29 505.64 263.64
  A 1.52 1.52 0.0 0 0 504.77 265.42
  L 510.26 286.73
  Z
  M 311.97 475.10
  Q 311.32 476.85 309.77 477.41
  Q 297.00 482.01 292.55 494.74
  C 291.63 497.39 291.24 500.51 291.25 503.35
  Q 291.28 523.38 291.23 542.77
  Q 291.23 544.26 290.78 545.73
  Q 290.65 546.16 290.20 546.25
  L 289.78 546.32
  L 259.01 546.36
  L 246.40 546.17
  Q 245.72 546.16 245.67 546.84
  Q 245.16 553.62 244.65 559.73
  Q 240.89 605.12 236.99 650.50
  Q 235.03 673.29 233.04 696.00
  Q 232.62 700.80 233.13 703.65
  Q 232.32 704.42 232.39 704.85
  Q 232.45 705.23 233.29 705.23
  Q 321.29 704.55 409.87 705.26
  A 0.54 0.54 0.0 0 0 410.40 704.63
  L 410.01 702.45
  L 395.09 545.53
  Q 395.03 544.89 394.38 544.89
  L 382.75 544.80
  L 381.05 544.80
  L 350.49 546.14
  Q 349.51 546.24 348.81 545.93
  Q 348.34 545.72 348.32 545.20
  Q 348.26 543.98 348.25 542.75
  Q 348.15 522.01 348.10 501.24
  Q 348.09 494.95 342.94 487.83
  Q 343.56 486.83 344.03 486.53
  A 1.40 1.38 59.6 0 0 344.50 484.68
  Q 338.24 473.36 333.38 462.67
  A 1.32 1.31 70.5 0 0 331.86 461.94
  Q 319.83 465.02 311.97 475.10
  Z"
/>
<path fill="#0e0a18" d="
  M 575.28 307.66
  Q 569.02 307.13 563.53 304.43
  A 0.12 0.11 8.4 0 0 563.36 304.55
  Q 570.92 347.00 578.93 393.17
  Q 580.74 403.59 582.19 413.75
  A 0.57 0.57 0.0 0 0 582.98 414.19
  L 601.54 406.26
  Q 602.68 405.77 603.18 406.91
  L 609.96 422.26
  L 654.74 519.68
  A 0.61 0.61 0.0 0 1 654.45 520.49
  L 604.27 543.98
  Q 604.00 543.90 603.93 543.50
  Q 591.53 480.01 579.21 416.50
  Q 568.57 361.67 550.45 276.85
  L 549.84 273.84
  Q 549.74 273.30 550.27 273.19
  L 555.23 272.12
  A 1.50 1.49 70.6 0 1 556.89 272.92
  Q 558.01 275.17 558.57 278.00
  Q 560.13 285.75 561.58 294.62
  Q 561.76 295.68 562.17 294.68
  C 564.32 289.44 566.20 283.86 563.37 278.38
  C 561.28 274.35 559.08 270.24 557.26 266.08
  Q 551.99 254.05 546.67 242.04
  Q 546.47 241.59 546.08 241.89
  Q 540.84 245.98 534.19 248.04
  L 527.46 249.65
  A 0.88 0.88 0.0 0 1 526.38 248.82
  Q 526.13 240.03 525.08 231.13
  Q 525.04 230.78 525.39 230.74
  Q 531.05 230.09 533.24 224.85
  C 535.47 219.49 532.10 212.67 526.20 211.87
  Q 518.42 210.81 515.67 217.09
  A 1.14 1.14 0.0 0 1 514.03 217.60
  Q 503.00 210.74 495.96 198.25
  A 0.81 0.81 0.0 0 0 495.24 197.84
  L 485.92 198.10
  C 470.24 194.78 467.82 174.51 483.65 169.11
  C 494.43 165.42 506.71 168.93 515.62 175.67
  C 516.31 176.20 517.42 176.34 518.25 176.23
  C 537.23 173.88 553.56 185.97 557.75 204.29
  Q 560.61 216.81 554.50 229.35
  Q 554.21 229.94 554.82 230.17
  C 569.87 236.01 583.89 243.80 594.31 254.22
  C 605.55 265.47 611.86 282.37 601.62 296.49
  C 595.72 304.61 585.27 308.27 575.28 307.66
  Z"
/>
<path fill="#6946ff" d="
  M 680.70 209.32
  Q 681.69 201.34 685.71 194.21
  C 691.83 183.34 701.53 177.35 714.10 176.39
  Q 719.49 175.98 723.90 177.53
  C 739.37 182.95 742.12 197.10 737.19 211.53
  Q 734.53 219.29 730.14 227.61
  Q 719.34 248.04 704.66 268.20
  Q 698.40 276.80 691.15 284.46
  A 2.12 2.12 0.0 0 1 688.68 284.91
  Q 683.86 282.55 679.39 279.62
  Q 657.09 265.03 638.70 248.33
  C 627.75 238.40 616.08 223.64 618.91 207.81
  C 620.80 197.25 630.69 190.83 641.25 190.01
  C 656.33 188.84 672.47 195.51 679.58 209.51
  Q 680.46 211.23 680.70 209.32
  Z"
/>
<path fill="#f5abb0" d="
  M 534.19 248.04
  Q 536.63 249.79 534.15 251.47
  Q 533.25 252.08 531.47 252.53
  Q 519.99 255.43 508.56 259.46
  Q 507.11 259.96 507.32 258.45
  L 507.81 254.96
  A 0.45 0.44 -86.1 0 0 507.37 254.45
  C 505.54 254.46 503.69 254.78 501.88 254.47
  Q 496.19 253.48 491.58 249.80
  C 477.03 238.18 475.54 217.43 482.11 201.12
  Q 482.77 199.48 485.92 198.10
  L 495.24 197.84
  A 0.81 0.81 0.0 0 1 495.96 198.25
  Q 503.00 210.74 514.03 217.60
  A 1.14 1.14 0.0 0 0 515.67 217.09
  Q 518.42 210.81 526.20 211.87
  C 532.10 212.67 535.47 219.49 533.24 224.85
  Q 531.05 230.09 525.39 230.74
  Q 525.04 230.78 525.08 231.13
  Q 526.13 240.03 526.38 248.82
  A 0.88 0.88 0.0 0 0 527.46 249.65
  L 534.19 248.04
  Z"
/>
<path fill="#f1effc" d="
  M 510.26 286.73
  L 504.77 265.42
  A 1.52 1.52 0.0 0 1 505.64 263.64
  Q 517.96 258.29 531.87 255.26
  C 534.01 254.80 535.89 253.84 537.88 253.07
  A 2.02 2.02 0.0 0 1 540.45 254.10
  C 541.30 255.94 542.16 257.79 542.59 259.79
  C 543.33 263.16 544.37 268.70 546.84 271.17
  A 1.10 1.10 0.0 0 1 546.26 273.03
  Q 536.15 274.84 527.93 277.74
  Q 518.91 280.92 511.71 287.18
  A 0.89 0.89 0.0 0 1 510.26 286.73
  Z"
/>
<path fill="#f1effc" d="
  M 550.45 276.85
  Q 568.57 361.67 579.21 416.50
  Q 591.53 480.01 603.93 543.50
  Q 604.00 543.90 604.27 543.98
  Q 604.05 545.06 604.15 545.49
  Q 606.94 556.67 608.85 568.14
  A 0.64 0.64 0.0 0 1 608.32 568.87
  Q 604.76 569.45 601.15 569.83
  Q 599.41 570.02 597.90 569.56
  Q 596.29 569.08 594.88 568.89
  Q 588.25 568.01 583.75 568.38
  Q 578.59 568.80 579.90 570.72
  L 475.53 570.10
  Q 475.03 570.10 475.01 569.60
  L 470.85 473.42
  Q 471.25 471.79 471.57 469.56
  Q 471.88 467.49 472.42 465.63
  Q 477.09 449.68 480.59 433.03
  C 480.82 431.92 481.95 430.99 482.87 430.47
  Q 489.35 426.76 495.31 422.84
  C 500.26 419.58 504.21 416.36 507.48 411.30
  Q 517.14 396.38 526.00 382.23
  Q 531.42 373.57 536.98 364.74
  Q 543.97 353.64 552.51 337.99
  Q 554.56 334.22 555.62 331.10
  Q 555.80 330.59 555.42 330.20
  Q 555.21 329.99 554.87 330.29
  Q 554.57 330.55 554.44 330.93
  Q 552.49 336.63 548.95 342.99
  Q 543.42 352.96 538.63 360.71
  Q 524.77 383.14 508.35 408.38
  Q 505.52 412.74 502.38 416.22
  Q 500.38 418.43 493.64 422.76
  Q 481.26 430.74 468.69 437.62
  C 430.94 458.28 393.31 477.90 354.88 498.58
  A 0.80 0.80 0.0 0 1 353.76 498.18
  Q 349.93 489.24 344.86 480.50
  Q 343.07 477.42 341.65 474.30
  C 339.37 469.32 336.61 464.64 334.19 459.77
  A 1.43 1.43 0.0 0 1 334.58 458.01
  C 338.92 454.58 343.84 452.01 348.43 448.87
  Q 399.50 413.89 447.29 381.69
  Q 450.79 379.32 453.29 375.08
  Q 454.98 372.19 456.75 369.48
  Q 477.29 337.97 498.26 305.98
  Q 505.93 294.27 510.60 289.92
  C 519.56 281.57 531.25 277.02 543.42 274.97
  C 544.72 274.75 545.96 273.97 547.22 274.13
  Q 547.74 274.20 547.97 274.68
  Q 549.11 277.17 550.45 276.85
  Z"
/>
<path fill="#f1effc" d="
  M 575.28 307.66
  L 575.11 308.11
  Q 574.93 308.61 575.46 308.65
  C 577.90 308.84 579.34 312.33 580.37 314.25
  Q 596.54 344.08 610.38 366.74
  Q 614.88 374.12 620.03 380.74
  Q 623.64 385.37 624.50 388.59
  C 626.35 395.46 622.79 402.76 619.43 408.64
  Q 615.76 415.08 612.29 421.62
  Q 612.00 422.17 611.42 422.35
  Q 610.74 422.57 609.96 422.26
  L 603.18 406.91
  Q 602.68 405.77 601.54 406.26
  L 582.98 414.19
  A 0.57 0.57 0.0 0 1 582.19 413.75
  Q 580.74 403.59 578.93 393.17
  Q 570.92 347.00 563.36 304.55
  A 0.12 0.11 8.4 0 1 563.53 304.43
  Q 569.02 307.13 575.28 307.66
  Z"
/>
<path fill="#f5abb0" d="
  M 342.94 487.83
  Q 340.54 488.16 338.65 491.28
  Q 337.95 490.65 336.66 491.38
  C 331.26 494.42 323.52 496.04 318.01 493.42
  Q 312.31 490.70 311.29 482.68
  Q 312.16 479.84 312.05 478.75
  Q 311.85 476.97 311.97 475.10
  Q 319.83 465.02 331.86 461.94
  A 1.32 1.31 70.5 0 1 333.38 462.67
  Q 338.24 473.36 344.50 484.68
  A 1.40 1.38 59.6 0 1 344.03 486.53
  Q 343.56 486.83 342.94 487.83
  Z"
/>
<path fill="#0e0a18" d="
  M 470.85 473.42
  L 475.01 569.60
  Q 475.03 570.10 475.53 570.10
  L 579.90 570.72
  L 596.16 570.80
  Q 596.70 570.80 596.86 571.31
  Q 609.82 611.03 619.76 642.40
  Q 620.95 646.14 623.10 649.12
  Q 624.56 651.15 628.08 654.73
  C 671.49 698.99 712.31 740.95 751.14 781.40
  A 0.67 0.67 0.0 0 1 751.02 782.42
  L 707.74 810.98
  L 685.65 825.62
  L 670.48 835.70
  A 1.03 1.02 -36.0 0 1 669.12 835.49
  Q 610.39 763.06 552.28 690.69
  C 549.45 687.16 545.65 682.86 544.13 679.35
  Q 541.49 673.27 539.74 667.77
  Q 539.13 665.87 538.40 667.73
  Q 532.99 681.62 527.14 697.90
  Q 502.68 765.91 477.70 835.36
  Q 477.54 835.82 477.06 835.72
  L 415.93 823.58
  L 393.89 819.12
  Q 391.09 819.27 391.58 817.83
  Q 415.92 746.13 440.43 674.50
  Q 440.98 672.90 441.58 669.00
  Q 453.06 593.83 464.31 518.63
  Q 465.23 512.50 467.08 498.84
  Q 468.77 486.31 470.85 473.42
  Z"
/>
<path fill="#f1effc" d="
  M 311.97 475.10
  Q 311.85 476.97 312.05 478.75
  Q 312.16 479.84 311.29 482.68
  Q 307.11 485.01 304.25 487.52
  Q 297.09 493.82 296.94 503.50
  Q 296.63 524.55 296.75 545.61
  Q 296.75 546.09 296.95 546.34
  Q 297.29 546.74 297.81 546.51
  Q 297.04 546.94 296.95 547.40
  Q 293.93 546.72 290.91 547.27
  Q 290.54 546.59 289.78 546.32
  L 290.20 546.25
  Q 290.65 546.16 290.78 545.73
  Q 291.23 544.26 291.23 542.77
  Q 291.28 523.38 291.25 503.35
  C 291.24 500.51 291.63 497.39 292.55 494.74
  Q 297.00 482.01 309.77 477.41
  Q 311.32 476.85 311.97 475.10
  Z"
/>
<path fill="#ffffff" d="
  M 311.29 482.68
  Q 312.31 490.70 318.01 493.42
  C 323.52 496.04 331.26 494.42 336.66 491.38
  Q 337.95 490.65 338.65 491.28
  Q 343.26 496.89 343.26 505.49
  Q 343.27 525.18 343.05 544.86
  Q 343.04 545.66 342.63 545.99
  Q 342.11 546.41 341.29 546.35
  L 297.81 546.51
  Q 297.29 546.74 296.95 546.34
  Q 296.75 546.09 296.75 545.61
  Q 296.63 524.55 296.94 503.50
  Q 297.09 493.82 304.25 487.52
  Q 307.11 485.01 311.29 482.68
  Z"
/>
<path fill="#f1effc" d="
  M 342.94 487.83
  Q 348.09 494.95 348.10 501.24
  Q 348.15 522.01 348.25 542.75
  Q 348.26 543.98 348.32 545.20
  Q 348.34 545.72 348.81 545.93
  Q 349.51 546.24 350.49 546.14
  Q 349.92 546.10 349.49 546.25
  Q 349.00 546.41 348.90 546.92
  Q 348.78 547.55 348.98 547.65
  Q 346.68 546.30 342.88 547.55
  Q 343.33 547.36 343.05 546.87
  Q 342.90 546.62 342.58 546.51
  Q 342.00 546.30 341.29 546.35
  Q 342.11 546.41 342.63 545.99
  Q 343.04 545.66 343.05 544.86
  Q 343.27 525.18 343.26 505.49
  Q 343.26 496.89 338.65 491.28
  Q 340.54 488.16 342.94 487.83
  Z"
/>
<path fill="#948af8" d="
  M 381.05 544.80
  L 379.36 545.09
  Q 379.01 545.15 379.16 545.47
  Q 379.33 545.84 379.36 546.24
  Q 380.72 565.36 382.21 584.04
  Q 382.32 585.47 382.51 586.93
  Q 382.88 589.78 383.02 592.83
  Q 383.58 604.61 385.61 623.29
  Q 386.69 633.19 387.50 643.19
  Q 389.01 661.68 390.39 680.43
  C 390.59 683.23 391.38 686.36 393.26 688.52
  Q 396.27 691.98 399.91 696.14
  Q 401.94 698.47 402.99 700.87
  A 1.01 1.01 0.0 0 1 402.11 702.28
  Q 395.15 702.56 388.67 702.45
  Q 367.41 702.08 348.12 702.58
  C 325.96 703.15 303.00 702.57 282.51 702.61
  Q 274.10 702.63 262.51 702.30
  Q 249.42 701.94 235.95 702.15
  Q 241.74 695.29 247.26 689.38
  C 248.77 687.75 250.28 685.69 250.35 683.49
  Q 250.67 673.85 251.24 666.00
  Q 254.66 618.29 258.59 560.25
  Q 259.13 552.22 259.01 546.36
  L 289.78 546.32
  Q 290.54 546.59 290.91 547.27
  Q 291.00 561.58 290.86 565.51
  C 290.19 583.54 304.97 596.86 322.77 595.53
  C 338.11 594.39 349.35 580.85 349.04 565.75
  Q 348.86 557.09 348.98 547.65
  Q 348.78 547.55 348.90 546.92
  Q 349.00 546.41 349.49 546.25
  Q 349.92 546.10 350.49 546.14
  L 381.05 544.80
  Z"
/>
<path fill="#6946ff" d="
  M 381.05 544.80
  L 382.75 544.80
  Q 383.38 554.95 384.36 565.05
  Q 385.74 579.27 386.18 584.98
  Q 387.61 603.63 389.03 622.28
  C 390.47 641.25 392.58 661.11 393.80 679.20
  Q 394.04 682.78 395.31 685.10
  C 397.58 689.24 400.57 692.46 403.61 695.97
  Q 403.64 696.01 405.99 699.30
  Q 407.58 701.51 410.01 702.45
  L 410.40 704.63
  A 0.54 0.54 0.0 0 1 409.87 705.26
  Q 321.29 704.55 233.29 705.23
  Q 232.45 705.23 232.39 704.85
  Q 232.32 704.42 233.13 703.65
  L 235.95 702.15
  Q 249.42 701.94 262.51 702.30
  Q 274.10 702.63 282.51 702.61
  C 303.00 702.57 325.96 703.15 348.12 702.58
  Q 367.41 702.08 388.67 702.45
  Q 395.15 702.56 402.11 702.28
  A 1.01 1.01 0.0 0 0 402.99 700.87
  Q 401.94 698.47 399.91 696.14
  Q 396.27 691.98 393.26 688.52
  C 391.38 686.36 390.59 683.23 390.39 680.43
  Q 389.01 661.68 387.50 643.19
  Q 386.69 633.19 385.61 623.29
  Q 383.58 604.61 383.02 592.83
  Q 382.88 589.78 382.51 586.93
  Q 382.32 585.47 382.21 584.04
  Q 380.72 565.36 379.36 546.24
  Q 379.33 545.84 379.16 545.47
  Q 379.01 545.15 379.36 545.09
  L 381.05 544.80
  Z"
/>
<path fill="#948af8" d="
  M 382.75 544.80
  L 394.38 544.89
  Q 395.03 544.89 395.09 545.53
  L 410.01 702.45
  Q 407.58 701.51 405.99 699.30
  Q 403.64 696.01 403.61 695.97
  C 400.57 692.46 397.58 689.24 395.31 685.10
  Q 394.04 682.78 393.80 679.20
  C 392.58 661.11 390.47 641.25 389.03 622.28
  Q 387.61 603.63 386.18 584.98
  Q 385.74 579.27 384.36 565.05
  Q 383.38 554.95 382.75 544.80
  Z"
/>
<path fill="#c8c7f7" d="
  M 259.01 546.36
  Q 259.13 552.22 258.59 560.25
  Q 254.66 618.29 251.24 666.00
  Q 250.67 673.85 250.35 683.49
  C 250.28 685.69 248.77 687.75 247.26 689.38
  Q 241.74 695.29 235.95 702.15
  L 233.13 703.65
  Q 232.62 700.80 233.04 696.00
  Q 235.03 673.29 236.99 650.50
  Q 240.89 605.12 244.65 559.73
  Q 245.16 553.62 245.67 546.84
  Q 245.72 546.16 246.40 546.17
  L 259.01 546.36
  Z"
/>
<path fill="#948af8" d="
  M 341.29 546.35
  Q 342.00 546.30 342.58 546.51
  Q 342.90 546.62 343.05 546.87
  Q 343.33 547.36 342.88 547.55
  Q 343.03 557.74 342.70 567.75
  Q 342.44 575.68 337.21 581.47
  C 328.57 591.02 315.26 592.79 305.29 584.05
  Q 296.46 576.30 296.70 564.75
  Q 296.88 556.21 296.95 547.40
  Q 297.04 546.94 297.81 546.51
  L 341.29 546.35
  Z"
/>
<path fill="#ffffff" d="
  M 348.98 547.65
  Q 348.86 557.09 349.04 565.75
  C 349.35 580.85 338.11 594.39 322.77 595.53
  C 304.97 596.86 290.19 583.54 290.86 565.51
  Q 291.00 561.58 290.91 547.27
  Q 293.93 546.72 296.95 547.40
  Q 296.88 556.21 296.70 564.75
  Q 296.46 576.30 305.29 584.05
  C 315.26 592.79 328.57 591.02 337.21 581.47
  Q 342.44 575.68 342.70 567.75
  Q 343.03 557.74 342.88 547.55
  Q 346.68 546.30 348.98 547.65
  Z"
/>
<path fill="#ffffff" d="
  M 685.65 825.62
  Q 686.31 826.03 685.79 827.60
  Q 685.45 828.62 685.46 829.46
  Q 685.54 836.76 682.60 842.76
  Q 679.88 848.31 670.44 865.50
  Q 661.44 865.70 655.16 870.91
  Q 652.86 872.82 653.46 875.71
  Q 653.52 876.31 652.51 876.07
  Q 651.15 875.73 649.75 875.74
  Q 638.04 875.83 628.00 875.84
  Q 517.20 875.86 407.72 875.89
  C 405.12 875.89 402.44 876.35 399.82 876.35
  Q 399.35 876.35 398.98 876.65
  Q 398.36 877.17 397.94 877.85
  Q 397.77 878.13 397.46 878.18
  Q 396.71 878.31 396.63 879.13
  Q 396.58 879.58 396.30 879.22
  L 396.09 878.94
  Q 398.90 873.04 401.36 866.85
  Q 403.33 861.88 405.33 860.40
  C 411.17 856.07 414.60 849.50 418.15 842.27
  Q 419.01 840.52 418.93 839.04
  A 1.73 1.73 0.0 0 0 416.89 837.43
  L 401.04 840.29
  Q 405.01 838.24 406.87 836.08
  Q 411.26 831.00 415.93 823.58
  L 477.06 835.72
  Q 477.54 835.82 477.70 835.36
  Q 502.68 765.91 527.14 697.90
  Q 532.99 681.62 538.40 667.73
  Q 539.13 665.87 539.74 667.77
  Q 541.49 673.27 544.13 679.35
  C 545.65 682.86 549.45 687.16 552.28 690.69
  Q 610.39 763.06 669.12 835.49
  A 1.03 1.02 -36.0 0 0 670.48 835.70
  L 685.65 825.62
  Z"
/>
<path fill="#f5abb0" d="
  M 707.74 810.98
  L 707.12 833.47
  Q 698.42 841.34 695.97 845.21
  Q 691.62 852.08 687.68 858.76
  Q 684.98 863.33 683.05 864.29
  Q 682.21 864.71 681.23 864.80
  Q 675.97 865.25 670.44 865.50
  Q 679.88 848.31 682.60 842.76
  Q 685.54 836.76 685.46 829.46
  Q 685.45 828.62 685.79 827.60
  Q 686.31 826.03 685.65 825.62
  L 707.74 810.98
  Z"
/>
<path fill="#f5abb0" d="
  M 393.89 819.12
  L 415.93 823.58
  Q 411.26 831.00 406.87 836.08
  Q 405.01 838.24 401.04 840.29
  Q 392.77 842.06 387.88 844.35
  Q 379.03 848.49 376.50 849.75
  C 370.13 852.90 365.79 850.13 361.06 846.05
  Q 371.22 839.42 380.79 833.02
  Q 387.99 828.21 390.99 820.67
  A 1.59 1.58 -74.0 0 1 392.74 819.69
  Q 393.74 819.88 393.89 819.12
  Z"
/>
<path fill="#0e0a18" d="
  M 687.42 874.50
  Q 680.69 880.41 670.01 879.47
  Q 659.75 878.57 653.46 875.71
  Q 652.86 872.82 655.16 870.91
  Q 661.44 865.70 670.44 865.50
  Q 675.97 865.25 681.23 864.80
  Q 682.21 864.71 683.05 864.29
  Q 684.98 863.33 687.68 858.76
  Q 691.62 852.08 695.97 845.21
  Q 698.42 841.34 707.12 833.47
  L 715.71 825.10
  A 2.06 2.05 -40.0 0 1 718.81 825.37
  Q 719.65 826.54 719.91 828.16
  C 721.06 835.27 722.21 845.31 718.69 851.70
  C 717.98 853.00 717.88 854.75 718.09 856.20
  C 719.00 862.34 720.67 869.38 720.39 875.56
  Q 720.36 876.07 719.88 876.27
  Q 717.19 877.39 713.68 877.02
  C 712.14 876.86 711.40 875.55 710.89 874.27
  Q 706.97 864.61 703.16 856.80
  Q 702.87 856.21 702.50 856.75
  Q 695.79 866.37 687.42 874.50
  Z"
/>
<path fill="#0e0a18" d="
  M 396.09 878.94
  Q 395.07 880.95 393.38 880.37
  Q 390.54 879.40 388.53 877.72
  Q 387.46 876.22 387.76 874.49
  Q 389.31 865.44 390.27 856.56
  Q 390.34 855.98 389.79 856.20
  Q 382.87 859.04 374.63 861.18
  C 366.77 863.23 360.07 863.39 353.16 858.17
  C 348.75 854.84 341.98 849.40 339.98 844.28
  A 1.57 1.55 63.5 0 1 340.60 842.40
  Q 342.80 841.02 345.76 841.19
  Q 354.51 841.69 361.06 846.05
  C 365.79 850.13 370.13 852.90 376.50 849.75
  Q 379.03 848.49 387.88 844.35
  Q 392.77 842.06 401.04 840.29
  L 416.89 837.43
  A 1.73 1.73 0.0 0 1 418.93 839.04
  Q 419.01 840.52 418.15 842.27
  C 414.60 849.50 411.17 856.07 405.33 860.40
  Q 403.33 861.88 401.36 866.85
  Q 398.90 873.04 396.09 878.94
  Z"
/>
<path fill="#f1effc" d="
  M 687.42 874.50
  Q 687.56 875.15 687.92 875.65
  Q 688.19 876.02 688.65 876.00
  Q 700.51 875.49 709.05 876.42
  Q 710.64 876.60 712.05 877.49
  C 713.03 878.11 714.37 877.99 715.36 877.51
  A 1.37 1.32 -52.5 0 1 716.17 877.39
  Q 717.50 877.62 718.96 877.70
  Q 719.78 877.74 720.24 877.23
  A 3.43 2.63 -64.5 0 1 722.50 876.08
  Q 727.48 876.04 732.01 876.03
  Q 847.24 875.74 962.49 875.72
  Q 968.77 875.72 970.91 876.75
  C 976.86 879.59 979.44 885.95 976.77 892.10
  C 974.21 898.02 968.49 898.87 962.50 898.86
  Q 748.67 898.58 552.25 898.93
  Q 542.63 898.95 532.25 898.94
  Q 297.38 898.73 63.25 898.82
  C 58.10 898.82 52.96 898.89 49.17 894.68
  C 45.86 891.00 45.94 884.17 48.63 880.52
  C 52.29 875.56 57.85 875.72 63.46 875.73
  Q 210.21 876.03 356.00 875.72
  Q 368.89 875.69 382.25 875.61
  Q 384.21 875.59 386.05 876.23
  A 1.29 1.27 84.8 0 1 386.76 876.83
  Q 387.56 878.28 388.53 877.72
  Q 390.54 879.40 393.38 880.37
  Q 395.07 880.95 396.09 878.94
  L 396.30 879.22
  Q 396.58 879.58 396.63 879.13
  Q 396.71 878.31 397.46 878.18
  Q 397.77 878.13 397.94 877.85
  Q 398.36 877.17 398.98 876.65
  Q 399.35 876.35 399.82 876.35
  C 402.44 876.35 405.12 875.89 407.72 875.89
  Q 517.20 875.86 628.00 875.84
  Q 638.04 875.83 649.75 875.74
  Q 651.15 875.73 652.51 876.07
  Q 653.52 876.31 653.46 875.71
  Q 659.75 878.57 670.01 879.47
  Q 680.69 880.41 687.42 874.50
  Z"
/>
</svg>
